# xmcd
#
# Track frame offsets:
#	150
#	15429
#	29906
#	41214
#	60633
#	76653
#	79149
#	90661
#	93548
#	117450
#	120098
#	140608
#	143480
#
# Disc length: 1929 seconds
#
# Revision: 1
# Processed by: cddbd v1.5.2PL0 Copyright (c) Steve Scherf et al.
# Submitted via: audiograbber 1.83.01
#
DISCID=a407870d
DTITLE=Various Artist - Redneck Biker
DYEAR=1900
DGENRE=Country
TTITLE0=That Smell
TTITLE1=Tuff Enuff
TTITLE2=Mississippi Queen
TTITLE3=Black Water
TTITLE4=All Right Now
TTITLE5=Start the Engine
TTITLE6=Black Betty
TTITLE7=Rev It Up
TTITLE8=Radar Love
TTITLE9=Ridin' the Hog
TTITLE10=Legs
TTITLE11=Burning Rubber
TTITLE12=Brake Lock
EXTD=
EXTT0=
EXTT1=
EXTT2=
EXTT3=
EXTT4=
EXTT5=
EXTT6=
EXTT7=
EXTT8=
EXTT9=
EXTT10=
EXTT11=
EXTT12=
PLAYORDER=
